# xmcd
#
# Track frame offsets:
#	150
#	15459
#	36886
#	60098
#	74940
#	93223
#	108658
#	129036
#	149910
#	171798
#
# Disc length: 2495 seconds
#
# Revision: 0
# Processed by: cddbd v1.5.2PL0 Copyright (c) Steve Scherf et al.
# Submitted via: audiograbber 1.83.01
#
DISCID=8809bd0a
DTITLE=Smokin' Joe - On Beale Street
DYEAR=2015
DGENRE=Blues
TTITLE0=Rolling To Memphis
TTITLE1=Wishes
TTITLE2=Gypsy Soul
TTITLE3=Guitar Heaven
TTITLE4=This Woman Of Mine
TTITLE5=Choices
TTITLE6=Boogie
TTITLE7=Show Me
TTITLE8=Drop Of Blues
TTITLE9=Down On The Bluff
EXTD=
EXTT0=
EXTT1=
EXTT2=
EXTT3=
EXTT4=
EXTT5=
EXTT6=
EXTT7=
EXTT8=
EXTT9=
PLAYORDER=
